<svg width="16" height="20" viewBox="0 0 16 20" fill="none" xmlns="http://www.w3.org/2000/svg">
<g clip-path="url(#clip0_16_92)">
<path d="M8 4.1875C4.78906 4.1875 2.1875 6.78906 2.1875 10C2.1875 13.2109 4.78906 15.8125 8 15.8125C11.2109 15.8125 13.8125 13.2109 13.8125 10C13.8125 6.78906 11.2109 4.1875 8 4.1875ZM8 14.6875C5.41016 14.6875 3.3125 12.5898 3.3125 10C3.3125 7.41016 5.41016 5.3125 8 5.3125C10.5898 5.3125 12.6875 7.41016 12.6875 10C12.6875 12.5898 10.5898 14.6875 8 14.6875ZM9.44844 12.2406L7.45859 10.7945C7.38594 10.7406 7.34375 10.6563 7.34375 10.5672V6.71875C7.34375 6.56406 7.47031 6.4375 7.625 6.4375H8.375C8.52969 6.4375 8.65625 6.56406 8.65625 6.71875V10.0398L10.2219 11.1789C10.3484 11.2703 10.3742 11.4461 10.2828 11.5727L9.84219 12.1797C9.75078 12.3039 9.575 12.332 9.44844 12.2406Z" fill="#3A833A"/>
</g>
<defs>
<clipPath id="clip0_16_92">
<rect width="12" height="12" fill="white" transform="translate(2 4)"/>
</clipPath>
</defs>
</svg>
