<svg width="16" height="20" viewBox="0 0 16 20" fill="none" xmlns="http://www.w3.org/2000/svg">
<path d="M13.8125 9.98901C13.8184 13.1915 11.2067 15.8102 8.00422 15.8125C6.62105 15.8135 5.35055 15.3313 4.35214 14.5255C4.09252 14.316 4.07312 13.9269 4.30904 13.691L4.57311 13.4269C4.77488 13.2251 5.09701 13.203 5.32055 13.3804C6.05614 13.9641 6.98705 14.3125 8 14.3125C10.3837 14.3125 12.3125 12.3833 12.3125 10C12.3125 7.61629 10.3833 5.6875 8 5.6875C6.85592 5.6875 5.81682 6.13209 5.04528 6.85778L6.23483 8.04733C6.47108 8.28358 6.30376 8.6875 5.96968 8.6875H2.5625C2.35538 8.6875 2.1875 8.51962 2.1875 8.3125V4.90532C2.1875 4.57124 2.59142 4.40392 2.82767 4.64015L3.98483 5.7973C5.02834 4.80006 6.44262 4.1875 8 4.1875C11.2065 4.1875 13.8066 6.78391 13.8125 9.98901ZM9.57237 11.8355L9.8026 11.5395C9.99334 11.2943 9.94916 10.9409 9.70393 10.7501L8.75 10.0082V7.5625C8.75 7.25184 8.49816 7 8.1875 7H7.8125C7.50184 7 7.25 7.25184 7.25 7.5625V10.7418L8.78302 11.9342C9.02825 12.1249 9.38164 12.0807 9.57237 11.8355Z" fill="#EB9419"/>
</svg>
